<svg data-v-423bf9ae="" xmlns="http://www.w3.org/2000/svg" viewBox="0 0 346 90" class="iconLeft"><!----><!----><defs data-v-423bf9ae=""><linearGradient data-v-423bf9ae="" gradientTransform="rotate(25)" id="25732e57-3df4-4eca-8914-1443d8878f2b" x1="0%" y1="0%" x2="100%" y2="0%"><stop data-v-423bf9ae="" offset="0%" style="stop-color: rgb(13, 171, 233); stop-opacity: 1;"></stop><stop data-v-423bf9ae="" offset="100%" style="stop-color: rgb(67, 13, 233); stop-opacity: 1;"></stop></linearGradient></defs><g data-v-423bf9ae="" id="a68bedf3-b6b4-45b9-bdaf-6b3ffc027e02" fill="url(#25732e57-3df4-4eca-8914-1443d8878f2b)" transform="matrix(5.439093589782715,0,0,5.439093589782715,112.70191955566406,7.3937668800354)"><path d="M4.76 4.59L4.76 4.59Q5.85 4.59 6.75 5.10L6.75 5.10L6.75 5.10Q7.64 5.61 8.15 6.51L8.15 6.51L8.15 6.51Q8.67 7.41 8.67 8.51L8.67 8.51L8.67 8.51Q8.67 9.60 8.15 10.50L8.15 10.50L8.15 10.50Q7.64 11.40 6.75 11.91L6.75 11.91L6.75 11.91Q5.85 12.42 4.76 12.42L4.76 12.42L4.76 12.42Q3.65 12.42 2.76 11.91L2.76 11.91L2.76 11.91Q1.86 11.40 1.35 10.50L1.35 10.50L1.35 10.50Q0.84 9.60 0.84 8.51L0.84 8.51L0.84 8.51Q0.84 7.41 1.35 6.51L1.35 6.51L1.35 6.51Q1.86 5.61 2.76 5.10L2.76 5.10L2.76 5.10Q3.65 4.59 4.76 4.59L4.76 4.59ZM4.76 5.38L4.76 5.38Q3.89 5.38 3.19 5.79L3.19 5.79L3.19 5.79Q2.49 6.20 2.09 6.92L2.09 6.92L2.09 6.92Q1.68 7.63 1.68 8.51L1.68 8.51L1.68 8.51Q1.68 9.39 2.09 10.11L2.09 10.11L2.09 10.11Q2.49 10.82 3.19 11.23L3.19 11.23L3.19 11.23Q3.89 11.63 4.76 11.63L4.76 11.63L4.76 11.63Q5.63 11.63 6.33 11.23L6.33 11.23L6.33 11.23Q7.03 10.82 7.43 10.11L7.43 10.11L7.43 10.11Q7.83 9.39 7.83 8.51L7.83 8.51L7.83 8.51Q7.83 7.63 7.43 6.92L7.43 6.92L7.43 6.92Q7.03 6.20 6.33 5.79L6.33 5.79L6.33 5.79Q5.63 5.38 4.76 5.38L4.76 5.38ZM19.12 11.73L19.12 11.73Q19.17 11.82 19.17 11.91L19.17 11.91L19.17 11.91Q19.17 12.08 19.04 12.21L19.04 12.21L19.04 12.21Q18.91 12.33 18.75 12.33L18.75 12.33L18.75 12.33Q18.47 12.33 18.35 12.07L18.35 12.07L17.32 9.59L11.62 9.59L10.58 12.07L10.58 12.07Q10.49 12.33 10.19 12.33L10.19 12.33L10.19 12.33Q10.00 12.33 9.88 12.21L9.88 12.21L9.88 12.21Q9.77 12.08 9.77 11.91L9.77 11.91L9.77 11.91Q9.77 11.82 9.81 11.73L9.81 11.73L14.06 1.69L14.06 1.69Q14.17 1.40 14.46 1.40L14.46 1.40L14.46 1.40Q14.74 1.40 14.87 1.69L14.87 1.69L19.12 11.73ZM11.94 8.83L17.00 8.83L14.46 2.79L11.94 8.83ZM27.09 4.68L27.09 4.68Q27.29 4.68 27.40 4.79L27.40 4.79L27.40 4.79Q27.51 4.90 27.51 5.10L27.51 5.10L27.51 11.91L27.51 11.91Q27.51 12.10 27.40 12.21L27.40 12.21L27.40 12.21Q27.29 12.33 27.09 12.33L27.09 12.33L27.09 12.33Q26.91 12.33 26.79 12.21L26.79 12.21L26.79 12.21Q26.67 12.10 26.67 11.91L26.67 11.91L26.67 11.19L26.67 11.19Q26.19 11.77 25.51 12.10L25.51 12.10L25.51 12.10Q24.82 12.43 24.01 12.43L24.01 12.43L24.01 12.43Q22.99 12.43 22.18 12.01L22.18 12.01L22.18 12.01Q21.38 11.59 20.92 10.79L20.92 10.79L20.92 10.79Q20.47 9.98 20.47 8.86L20.47 8.86L20.47 5.10L20.47 5.10Q20.47 4.91 20.59 4.79L20.59 4.79L20.59 4.79Q20.71 4.68 20.89 4.68L20.89 4.68L20.89 4.68Q21.07 4.68 21.19 4.79L21.19 4.79L21.19 4.79Q21.31 4.91 21.31 5.10L21.31 5.10L21.31 8.86L21.31 8.86Q21.31 10.19 22.06 10.89L22.06 10.89L22.06 10.89Q22.81 11.59 24.01 11.59L24.01 11.59L24.01 11.59Q24.75 11.59 25.36 11.30L25.36 11.30L25.36 11.30Q25.97 11.02 26.32 10.51L26.32 10.51L26.32 10.51Q26.67 10.00 26.67 9.38L26.67 9.38L26.67 5.10L26.67 5.10Q26.67 4.90 26.79 4.79L26.79 4.79L26.79 4.79Q26.91 4.68 27.09 4.68L27.09 4.68ZM33.49 11.48L33.49 11.48Q33.68 11.48 33.80 11.60L33.80 11.60L33.80 11.60Q33.92 11.72 33.92 11.91L33.92 11.91L33.92 11.91Q33.92 12.10 33.80 12.21L33.80 12.21L33.80 12.21Q33.68 12.33 33.49 12.33L33.49 12.33L33.17 12.33L33.17 12.33Q32.40 12.33 31.79 11.98L31.79 11.98L31.79 11.98Q31.19 11.63 30.86 11.03L30.86 11.03L30.86 11.03Q30.52 10.42 30.52 9.65L30.52 9.65L30.52 5.71L29.43 5.71L29.43 5.71Q29.26 5.71 29.16 5.61L29.16 5.61L29.16 5.61Q29.05 5.50 29.05 5.33L29.05 5.33L29.05 5.33Q29.05 5.17 29.16 5.06L29.16 5.06L29.16 5.06Q29.26 4.96 29.43 4.96L29.43 4.96L30.52 4.96L30.52 2.67L30.52 2.67Q30.52 2.48 30.64 2.36L30.64 2.36L30.64 2.36Q30.76 2.24 30.94 2.24L30.94 2.24L30.94 2.24Q31.14 2.24 31.25 2.36L31.25 2.36L31.25 2.36Q31.37 2.48 31.37 2.67L31.37 2.67L31.37 4.96L33.22 4.96L33.22 4.96Q33.39 4.96 33.49 5.06L33.49 5.06L33.49 5.06Q33.60 5.17 33.60 5.33L33.60 5.33L33.60 5.33Q33.60 5.50 33.49 5.61L33.49 5.61L33.49 5.61Q33.39 5.71 33.22 5.71L33.22 5.71L31.37 5.71L31.37 9.65L31.37 9.65Q31.37 10.46 31.88 10.97L31.88 10.97L31.88 10.97Q32.38 11.48 33.18 11.48L33.18 11.48L33.49 11.48ZM39.17 4.58L39.17 4.58Q40.19 4.58 41.00 5.00L41.00 5.00L41.00 5.00Q41.80 5.42 42.26 6.22L42.26 6.22L42.26 6.22Q42.71 7.03 42.71 8.15L42.71 8.15L42.71 11.91L42.71 11.91Q42.71 12.10 42.59 12.21L42.59 12.21L42.59 12.21Q42.48 12.33 42.29 12.33L42.29 12.33L42.29 12.33Q42.11 12.33 41.99 12.21L41.99 12.21L41.99 12.21Q41.87 12.10 41.87 11.91L41.87 11.91L41.87 8.15L41.87 8.15Q41.87 6.82 41.13 6.12L41.13 6.12L41.13 6.12Q40.38 5.42 39.17 5.42L39.17 5.42L39.17 5.42Q38.43 5.42 37.82 5.70L37.82 5.70L37.82 5.70Q37.21 5.99 36.86 6.50L36.86 6.50L36.86 6.50Q36.51 7.01 36.51 7.63L36.51 7.63L36.51 11.91L36.51 11.91Q36.51 12.10 36.40 12.21L36.40 12.21L36.40 12.21Q36.29 12.33 36.09 12.33L36.09 12.33L36.09 12.33Q35.91 12.33 35.79 12.21L35.79 12.21L35.79 12.21Q35.67 12.10 35.67 11.91L35.67 11.91L35.67 1.82L35.67 1.82Q35.67 1.62 35.79 1.51L35.79 1.51L35.79 1.51Q35.91 1.40 36.09 1.40L36.09 1.40L36.09 1.40Q36.29 1.40 36.40 1.51L36.40 1.51L36.40 1.51Q36.51 1.62 36.51 1.82L36.51 1.82L36.51 5.82L36.51 5.82Q36.99 5.24 37.67 4.91L37.67 4.91L37.67 4.91Q38.36 4.58 39.17 4.58L39.17 4.58Z"></path></g><defs data-v-423bf9ae=""><linearGradient data-v-423bf9ae="" gradientTransform="rotate(25)" id="3c86a1d9-7ed8-4877-8426-066a9cec3f7f" x1="0%" y1="0%" x2="100%" y2="0%"><stop data-v-423bf9ae="" offset="0%" style="stop-color: rgb(13, 171, 233); stop-opacity: 1;"></stop><stop data-v-423bf9ae="" offset="100%" style="stop-color: rgb(67, 13, 233); stop-opacity: 1;"></stop></linearGradient></defs><g data-v-423bf9ae="" id="ea686cd9-0ab4-4ea2-af6b-bfa2e3470dc9" transform="matrix(1.0807768106460571,0,0,1.0807768106460571,-5.038840293884277,-8.675559043884277)" stroke="none" fill="url(#3c86a1d9-7ed8-4877-8426-066a9cec3f7f)"><path d="M94.779 42.88l-6.73 8.381a1 1 0 0 1-1.558 0l-6.729-8.381a1 1 0 1 1 1.558-1.252l4.879 6.075c-1.194-20.79-18.48-37.338-39.563-37.338C24.78 10.365 7 28.145 7 50c0 21.854 17.78 39.635 39.635 39.635 12.348 0 23.772-5.604 31.346-15.375a1 1 0 1 1 1.58 1.225c-7.954 10.263-19.956 16.15-32.926 16.15C23.678 91.635 5 72.958 5 50S23.678 8.365 46.635 8.365c22.239 0 40.463 17.528 41.58 39.495l5.006-6.232a.999.999 0 1 1 1.558 1.252zm-36.985-1.896c0 1.014-.044 4.881-.058 6.111h3.121a1 1 0 0 1 1 1v20.317a1 1 0 0 1-1 1H32.413a1 1 0 0 1-1-1V48.095a1 1 0 0 1 1-1h3.063v-6.111c0-6.153 5.006-11.159 11.158-11.159 6.154 0 11.16 5.006 11.16 11.159zm-20.317 6.111h18.259c.015-1.2.059-5.096.059-6.111 0-5.05-4.108-9.159-9.159-9.159-5.05 0-9.158 4.108-9.158 9.159v6.111zm-4.064 2v18.317h26.444V49.095H33.413z"></path></g><!----></svg>